<svg xmlns="http://www.w3.org/2000/svg" viewBox="0 0 1600 500" preserveAspectRatio="xMidYMax slice">
  <g opacity="0.22">
    <g fill="#1b1204">
      <!-- skyline -->
      <rect x="0" y="260" width="90" height="240"/>
      <rect x="95" y="200" width="70" height="300"/>
      <rect x="170" y="300" width="110" height="200"/>
      <rect x="285" y="150" width="60" height="350"/>
      <rect x="350" y="240" width="90" height="260"/>
      <rect x="445" y="190" width="50" height="310"/>
      <rect x="500" y="270" width="120" height="230"/>
      <rect x="625" y="120" width="70" height="380"/>
      <rect x="700" y="220" width="95" height="280"/>
      <rect x="800" y="260" width="80" height="240"/>
      <rect x="885" y="170" width="60" height="330"/>
      <rect x="950" y="230" width="110" height="270"/>
      <rect x="1065" y="140" width="65" height="360"/>
      <rect x="1135" y="280" width="90" height="220"/>
      <rect x="1230" y="200" width="75" height="300"/>
      <rect x="1310" y="250" width="100" height="250"/>
      <rect x="1415" y="180" width="60" height="320"/>
      <rect x="1480" y="290" width="120" height="210"/>

      <!-- ventanas -->
      <g opacity="0.55">
        <rect x="10" y="280" width="10" height="14"/><rect x="35" y="280" width="10" height="14"/><rect x="60" y="280" width="10" height="14"/>
        <rect x="10" y="320" width="10" height="14"/><rect x="35" y="320" width="10" height="14"/><rect x="60" y="320" width="10" height="14"/>
        <rect x="10" y="360" width="10" height="14"/><rect x="35" y="360" width="10" height="14"/><rect x="60" y="360" width="10" height="14"/>
        <rect x="115" y="230" width="10" height="14"/><rect x="140" y="230" width="10" height="14"/>
        <rect x="115" y="270" width="10" height="14"/><rect x="140" y="270" width="10" height="14"/>
        <rect x="115" y="310" width="10" height="14"/><rect x="140" y="310" width="10" height="14"/>
        <rect x="305" y="180" width="10" height="14"/><rect x="325" y="180" width="10" height="14"/>
        <rect x="305" y="220" width="10" height="14"/><rect x="325" y="220" width="10" height="14"/>
        <rect x="305" y="260" width="10" height="14"/><rect x="325" y="260" width="10" height="14"/>
        <rect x="645" y="150" width="10" height="14"/><rect x="670" y="150" width="10" height="14"/>
        <rect x="645" y="190" width="10" height="14"/><rect x="670" y="190" width="10" height="14"/>
        <rect x="645" y="230" width="10" height="14"/><rect x="670" y="230" width="10" height="14"/>
        <rect x="1085" y="170" width="10" height="14"/><rect x="1105" y="170" width="10" height="14"/>
        <rect x="1085" y="210" width="10" height="14"/><rect x="1105" y="210" width="10" height="14"/>
        <rect x="1435" y="210" width="10" height="14"/><rect x="1455" y="210" width="10" height="14"/>
        <rect x="1435" y="250" width="10" height="14"/><rect x="1455" y="250" width="10" height="14"/>
      </g>
    </g>

    <!-- carteles, estilo Times Square -->
    <g fill="#c7860a" opacity="0.6">
      <rect x="200" y="330" width="55" height="34" rx="2"/>
      <rect x="720" y="250" width="60" height="38" rx="2"/>
      <rect x="960" y="260" width="55" height="34" rx="2"/>
    </g>

    <!-- calle -->
    <rect x="0" y="470" width="1600" height="30" fill="#1b1204"/>
    <line x1="0" y1="485" x2="1600" y2="485" stroke="#1b1204" stroke-width="6" stroke-dasharray="40 30" opacity="0.4"/>
  </g>

  <!-- taxi: sin la opacidad general, es el foco -->
  <g transform="translate(760,406)" opacity="0.85">
    <rect x="0" y="26" width="150" height="34" rx="8" fill="#1b1204"/>
    <path d="M18 26 L34 2 H116 L132 26 Z" fill="#1b1204"/>
    <rect x="46" y="8" width="24" height="16" rx="2" fill="#ffc72c"/>
    <rect x="80" y="8" width="24" height="16" rx="2" fill="#ffc72c"/>
    <rect x="0" y="26" width="150" height="34" rx="8" fill="none" stroke="#ffc72c" stroke-width="3" opacity="0.7"/>
    <circle cx="34" cy="62" r="13" fill="#1b1204"/>
    <circle cx="34" cy="62" r="5" fill="#ffc72c"/>
    <circle cx="118" cy="62" r="13" fill="#1b1204"/>
    <circle cx="118" cy="62" r="5" fill="#ffc72c"/>
    <rect x="60" y="0" width="30" height="10" rx="2" fill="#ffc72c"/>
  </g>
</svg>
